# Blender 4.5.0
# www.blender.org
o spaceship.004
v 1.250000 0.500000 -1.500000
v 1.250000 -0.500000 -1.500000
v 1.249773 0.000000 1.499815
v -1.250000 0.500000 -1.500000
v -1.250000 -0.500000 -1.500000
v -1.249773 0.000000 1.499815
v 1.250000 0.000000 -1.000000
v 3.000000 0.000000 -2.500000
v 3.000000 0.000000 1.500000
v 4.250000 0.000000 -2.000000
v 4.250000 0.000000 2.000000
v -0.726819 -0.739697 -2.000644
v -0.994205 -0.059924 -4.000161
v 0.726819 -0.739697 -2.000644
v 1.011590 0.744849 -1.999678
v 0.994205 -0.059924 -4.000161
v -1.250000 0.000000 1.000000
v -1.250000 0.000000 -1.000000
v -4.250000 0.000000 2.000000
v -4.250000 0.000000 -2.000000
v -3.000000 0.000000 1.500000
v -3.000000 0.000000 -2.500000
v 3.000000 0.000000 -1.000000
v 1.250000 0.000000 1.000000
v 3.000000 0.000000 1.000000
v -3.000000 0.000000 1.000000
v -3.000000 0.000000 -1.000000
v -0.000000 1.001122 1.500370
v 0.000000 1.000000 -1.500000
v 0.000000 -1.000000 -1.500000
v -0.000000 -1.001122 1.500370
v -0.752649 -0.128267 4.025106
v -2.340776 -0.122951 3.262672
v -1.011590 0.744849 -1.999678
v -0.000000 -0.109499 4.025256
v 0.752648 -0.128267 4.025106
v -0.000000 0.004171 2.545703
v 2.340776 -0.122951 3.262672
v -0.750000 0.000000 -1.500000
v 0.750000 0.000000 -1.500000
v -0.750000 0.000000 -2.000000
v 0.750000 0.000000 -2.000000
vn -0.5135 0.8551 0.0711
vn -1.0000 -0.0000 0.0001
vn 0.5135 -0.8551 0.0711
vn 1.0000 -0.0000 0.0001
vn -0.0000 -0.0000 -1.0000
vn -0.0000 -1.0000 -0.0000
vn -0.0000 -0.0007 1.0000
vn -0.0000 -0.9468 -0.3219
vn -0.0000 0.9277 -0.3732
vn -0.0000 1.0000 -0.0000
vn 0.5135 0.8551 0.0711
vn -0.5135 -0.8551 0.0711
vn 0.0249 -0.9968 -0.0766
vn -0.0317 0.9968 0.0731
vn -0.5017 0.6260 0.5970
vn 0.5017 0.6260 0.5970
vn -0.5002 -0.6241 0.6002
vn 0.5002 -0.6241 0.6002
vn -0.9799 -0.1880 0.0671
vn 0.9799 -0.1880 0.0671
vn 0.0249 0.9968 0.0766
vn -0.0317 -0.9968 -0.0731
vt 0.750000 0.500000
vt 0.875000 0.500000
vt 0.875000 0.750000
vt 0.750000 0.750000
vt 0.375000 0.375000
vt 0.625000 0.250000
vt 0.375000 0.250000
vt 0.250000 0.500000
vt 0.375000 0.500000
vt 0.500000 0.750000
vt 0.250000 0.750000
vt 0.625000 0.500000
vt 0.625000 0.375000
vt 0.000000 0.000000
vt 1.000000 0.000000
vt 1.000000 1.000000
vt 0.000000 1.000000
vt 0.500000 0.500000
vt 0.375000 0.750000
vt 0.562500 0.750000
vt 0.562500 1.000000
vt 0.375000 1.000000
vt 0.125000 0.500000
vt 0.125000 0.750000
vt 0.375000 0.875000
vt 0.312500 0.937500
vt 0.375000 0.000000
vt 0.562500 0.000000
vt 0.500000 0.250000
s 0
f 29/1/1 4/2/1 6/3/1 28/4/1
f 6/5/2 4/6/2 5/7/2
f 30/8/3 2/9/3 3/10/3 31/11/3
f 2/9/4 1/12/4 3/10/4
f 5/7/5 4/6/5 29/13/5 1/12/5 2/9/5 30/5/5
f 25/14/6 24/15/6 7/16/6 23/17/6
f 8/18/6 10/2/6 11/3/6 9/10/6
f 14/19/7 15/20/7 34/21/7 12/22/7
f 13/23/8 16/18/8 14/19/8 12/24/8
f 16/18/9 13/2/9 34/3/9 15/20/9
f 26/14/10 17/15/10 18/16/10 27/17/10
f 20/23/6 22/18/6 21/10/6 19/24/6
f 1/12/11 29/1/11 28/4/11 3/10/11
f 5/23/12 30/8/12 31/11/12 6/5/12
f 32/25/13 37/11/13 35/10/13
f 32/3/14 37/4/14 33/26/14
f 28/4/15 6/3/15 37/4/15
f 3/10/16 28/4/16 37/4/16
f 6/5/17 31/11/17 37/11/17
f 31/11/18 3/10/18 37/11/18
f 12/27/19 34/28/19 13/29/19
f 16/18/20 15/20/20 14/19/20
f 36/25/21 37/11/21 35/10/21
f 36/3/22 37/4/22 38/26/22
f 39/14/10 40/15/10 42/16/10 41/17/10
